# xmcd
#
# Track frame offsets:
# 150
# 15472
# 28737
# 43987
# 56740
# 73982
# 87475
# 102317
# 119972
# 132815
# 147382
# 163137
# 179890
# 191900
#
# Disc length: 2733 seconds
#
#
# Revision: 0
# Processed by: cddbd v1.5.2PL0 Copyright (c) Steve Scherf et al.
# Submitted via: FreeRIP 2.951 
#
DISCID=e50aab0e
DTITLE=Jonnys Orkester  - Vilka härliga tider
DYEAR=1994
DGENRE=Dansband
TTITLE0=Jonnys Orkester - Tänd ett ljus
TTITLE1=Jonnys Orkester - Du ska akta dej
TTITLE2=Jonnys Orkester - Days of wine and roses
TTITLE3=Jonnys Orkester - Tillbaks till dej
TTITLE4=Jonnys Orkester - En sång om kärleken
TTITLE5=Jonnys Orkester - Då börjar livets vår
TTITLE6=Jonnys Orkester - The young ones
TTITLE7=Jonnys Orkester - Jag ångrar mej inte en sekund
TTITLE8=Jonnys Orkester - En dans för sommaren
TTITLE9=Jonnys Orkester - Den första gången
TTITLE10=Jonnys Orkester - Vilka härliga tider
TTITLE11=Jonnys Orkester - Jag vet att vi möts snart igen
TTITLE12=Jonnys Orkester - Manhattan
TTITLE13=Jonnys Orkester - När kärleken slår till
EXTD=
EXTT0=
EXTT1=
EXTT2=
EXTT3=
EXTT4=
EXTT5=
EXTT6=
EXTT7=
EXTT8=
EXTT9=
EXTT10=
EXTT11=
EXTT12=
EXTT13=
PLAYORDER=
